<mxfile host="app.diagrams.net" modified="2024-03-18T14:34:58.735Z" agent="Mozilla/5.0 (Windows NT 10.0; Win64; x64) AppleWebKit/537.36 (KHTML, like Gecko) Chrome/122.0.0.0 Safari/537.36 Edg/122.0.0.0" etag="2AbDZjiZTXsCoNiXOe5C" version="24.0.7" type="github">
  <diagram name="Page-1" id="Xtmn6NuxkOcDQGFowQ2h">
    <mxGraphModel dx="2026" dy="785" grid="1" gridSize="10" guides="1" tooltips="1" connect="1" arrows="1" fold="1" page="1" pageScale="1" pageWidth="827" pageHeight="1169" math="0" shadow="0">
      <root>
        <mxCell id="0" />
        <mxCell id="1" parent="0" />
        <mxCell id="WczFpYkSfaAEdAV59eQe-5" style="edgeStyle=orthogonalEdgeStyle;rounded=0;orthogonalLoop=1;jettySize=auto;html=1;exitX=0.5;exitY=1;exitDx=0;exitDy=0;entryX=0.5;entryY=0;entryDx=0;entryDy=0;" edge="1" parent="1" target="WczFpYkSfaAEdAV59eQe-3">
          <mxGeometry relative="1" as="geometry">
            <mxPoint x="140" y="160" as="sourcePoint" />
          </mxGeometry>
        </mxCell>
        <mxCell id="WczFpYkSfaAEdAV59eQe-24" value="No" style="edgeLabel;html=1;align=center;verticalAlign=middle;resizable=0;points=[];" vertex="1" connectable="0" parent="WczFpYkSfaAEdAV59eQe-5">
          <mxGeometry x="-0.3734" y="1" relative="1" as="geometry">
            <mxPoint x="-1" y="-2" as="offset" />
          </mxGeometry>
        </mxCell>
        <mxCell id="WczFpYkSfaAEdAV59eQe-21" style="edgeStyle=orthogonalEdgeStyle;rounded=0;orthogonalLoop=1;jettySize=auto;html=1;exitX=0.5;exitY=1;exitDx=0;exitDy=0;entryX=0.5;entryY=0;entryDx=0;entryDy=0;" edge="1" parent="1" source="WczFpYkSfaAEdAV59eQe-1" target="WczFpYkSfaAEdAV59eQe-17">
          <mxGeometry relative="1" as="geometry" />
        </mxCell>
        <mxCell id="WczFpYkSfaAEdAV59eQe-1" value="start" style="rounded=1;whiteSpace=wrap;html=1;" vertex="1" parent="1">
          <mxGeometry x="80" width="120" height="40" as="geometry" />
        </mxCell>
        <mxCell id="WczFpYkSfaAEdAV59eQe-6" style="edgeStyle=orthogonalEdgeStyle;rounded=0;orthogonalLoop=1;jettySize=auto;html=1;exitX=0.5;exitY=1;exitDx=0;exitDy=0;entryX=0.5;entryY=0;entryDx=0;entryDy=0;" edge="1" parent="1" source="WczFpYkSfaAEdAV59eQe-3" target="WczFpYkSfaAEdAV59eQe-4">
          <mxGeometry relative="1" as="geometry" />
        </mxCell>
        <mxCell id="WczFpYkSfaAEdAV59eQe-3" value="await user input" style="shape=parallelogram;perimeter=parallelogramPerimeter;whiteSpace=wrap;html=1;fixedSize=1;" vertex="1" parent="1">
          <mxGeometry x="80" y="200" width="120" height="40" as="geometry" />
        </mxCell>
        <mxCell id="WczFpYkSfaAEdAV59eQe-7" style="edgeStyle=orthogonalEdgeStyle;rounded=0;orthogonalLoop=1;jettySize=auto;html=1;exitX=1;exitY=0.5;exitDx=0;exitDy=0;" edge="1" parent="1" source="WczFpYkSfaAEdAV59eQe-4">
          <mxGeometry relative="1" as="geometry">
            <mxPoint x="140" y="180" as="targetPoint" />
            <Array as="points">
              <mxPoint x="220" y="340" />
              <mxPoint x="220" y="180" />
            </Array>
          </mxGeometry>
        </mxCell>
        <mxCell id="WczFpYkSfaAEdAV59eQe-8" value="No" style="edgeLabel;html=1;align=center;verticalAlign=middle;resizable=0;points=[];" vertex="1" connectable="0" parent="WczFpYkSfaAEdAV59eQe-7">
          <mxGeometry x="-0.9143" relative="1" as="geometry">
            <mxPoint as="offset" />
          </mxGeometry>
        </mxCell>
        <mxCell id="WczFpYkSfaAEdAV59eQe-9" style="edgeStyle=orthogonalEdgeStyle;rounded=0;orthogonalLoop=1;jettySize=auto;html=1;exitX=0.5;exitY=1;exitDx=0;exitDy=0;" edge="1" parent="1" source="WczFpYkSfaAEdAV59eQe-4">
          <mxGeometry relative="1" as="geometry">
            <mxPoint x="140.28571428571422" y="440" as="targetPoint" />
          </mxGeometry>
        </mxCell>
        <mxCell id="WczFpYkSfaAEdAV59eQe-10" value="Yes" style="edgeLabel;html=1;align=center;verticalAlign=middle;resizable=0;points=[];" vertex="1" connectable="0" parent="WczFpYkSfaAEdAV59eQe-9">
          <mxGeometry x="-0.1528" relative="1" as="geometry">
            <mxPoint as="offset" />
          </mxGeometry>
        </mxCell>
        <mxCell id="WczFpYkSfaAEdAV59eQe-4" value="did user interact with element" style="rhombus;whiteSpace=wrap;html=1;" vertex="1" parent="1">
          <mxGeometry x="80" y="300" width="120" height="80" as="geometry" />
        </mxCell>
        <mxCell id="WczFpYkSfaAEdAV59eQe-11" value="was element &quot;Hotel&quot;&lt;div&gt;button&lt;/div&gt;" style="rhombus;whiteSpace=wrap;html=1;" vertex="1" parent="1">
          <mxGeometry x="80" y="440" width="120" height="80" as="geometry" />
        </mxCell>
        <mxCell id="WczFpYkSfaAEdAV59eQe-12" style="edgeStyle=orthogonalEdgeStyle;rounded=0;orthogonalLoop=1;jettySize=auto;html=1;exitX=0.5;exitY=1;exitDx=0;exitDy=0;" edge="1" parent="1" source="WczFpYkSfaAEdAV59eQe-11">
          <mxGeometry relative="1" as="geometry">
            <mxPoint x="140" y="580" as="targetPoint" />
            <mxPoint x="150" y="390" as="sourcePoint" />
          </mxGeometry>
        </mxCell>
        <mxCell id="WczFpYkSfaAEdAV59eQe-27" value="No" style="edgeLabel;html=1;align=center;verticalAlign=middle;resizable=0;points=[];" vertex="1" connectable="0" parent="WczFpYkSfaAEdAV59eQe-12">
          <mxGeometry x="-0.1406" y="-2" relative="1" as="geometry">
            <mxPoint as="offset" />
          </mxGeometry>
        </mxCell>
        <mxCell id="WczFpYkSfaAEdAV59eQe-14" style="edgeStyle=orthogonalEdgeStyle;rounded=0;orthogonalLoop=1;jettySize=auto;html=1;exitX=1;exitY=0.5;exitDx=0;exitDy=0;" edge="1" parent="1">
          <mxGeometry relative="1" as="geometry">
            <mxPoint x="240" y="480" as="targetPoint" />
            <mxPoint x="200" y="480" as="sourcePoint" />
            <Array as="points">
              <mxPoint x="240" y="480" />
              <mxPoint x="240" y="480" />
            </Array>
          </mxGeometry>
        </mxCell>
        <mxCell id="WczFpYkSfaAEdAV59eQe-15" value="No" style="edgeLabel;html=1;align=center;verticalAlign=middle;resizable=0;points=[];" vertex="1" connectable="0" parent="WczFpYkSfaAEdAV59eQe-14">
          <mxGeometry x="-0.9143" relative="1" as="geometry">
            <mxPoint x="8" as="offset" />
          </mxGeometry>
        </mxCell>
        <mxCell id="WczFpYkSfaAEdAV59eQe-25" value="Yes" style="edgeLabel;html=1;align=center;verticalAlign=middle;resizable=0;points=[];" vertex="1" connectable="0" parent="WczFpYkSfaAEdAV59eQe-14">
          <mxGeometry x="-0.4" y="-1" relative="1" as="geometry">
            <mxPoint as="offset" />
          </mxGeometry>
        </mxCell>
        <mxCell id="WczFpYkSfaAEdAV59eQe-16" value="Hotel Page" style="shape=process;whiteSpace=wrap;html=1;backgroundOutline=1;" vertex="1" parent="1">
          <mxGeometry x="240" y="460" width="100" height="40" as="geometry" />
        </mxCell>
        <mxCell id="WczFpYkSfaAEdAV59eQe-20" style="edgeStyle=orthogonalEdgeStyle;rounded=0;orthogonalLoop=1;jettySize=auto;html=1;exitX=1;exitY=0.5;exitDx=0;exitDy=0;entryX=0;entryY=0.5;entryDx=0;entryDy=0;" edge="1" parent="1" source="WczFpYkSfaAEdAV59eQe-17" target="WczFpYkSfaAEdAV59eQe-19">
          <mxGeometry relative="1" as="geometry" />
        </mxCell>
        <mxCell id="WczFpYkSfaAEdAV59eQe-17" value="Is user logged in" style="rhombus;whiteSpace=wrap;html=1;" vertex="1" parent="1">
          <mxGeometry x="80" y="80" width="120" height="80" as="geometry" />
        </mxCell>
        <mxCell id="WczFpYkSfaAEdAV59eQe-22" style="edgeStyle=orthogonalEdgeStyle;rounded=0;orthogonalLoop=1;jettySize=auto;html=1;exitX=0.5;exitY=1;exitDx=0;exitDy=0;" edge="1" parent="1" source="WczFpYkSfaAEdAV59eQe-19">
          <mxGeometry relative="1" as="geometry">
            <mxPoint x="220" y="180" as="targetPoint" />
            <Array as="points">
              <mxPoint x="300" y="180" />
            </Array>
          </mxGeometry>
        </mxCell>
        <mxCell id="WczFpYkSfaAEdAV59eQe-19" value="Remove &quot;Create account..&quot; text from ads and change &quot;Login&quot; button&amp;nbsp;text to &quot;Logout&quot;" style="rounded=0;whiteSpace=wrap;html=1;" vertex="1" parent="1">
          <mxGeometry x="240" y="90" width="140" height="60" as="geometry" />
        </mxCell>
        <mxCell id="WczFpYkSfaAEdAV59eQe-23" value="Yes" style="text;html=1;align=center;verticalAlign=middle;resizable=0;points=[];autosize=1;strokeColor=none;fillColor=none;" vertex="1" parent="1">
          <mxGeometry x="200" y="98" width="40" height="30" as="geometry" />
        </mxCell>
        <mxCell id="WczFpYkSfaAEdAV59eQe-28" value="was element &quot;Education&quot;&lt;div&gt;button&lt;/div&gt;" style="rhombus;whiteSpace=wrap;html=1;" vertex="1" parent="1">
          <mxGeometry x="80" y="580" width="120" height="80" as="geometry" />
        </mxCell>
        <mxCell id="WczFpYkSfaAEdAV59eQe-29" style="edgeStyle=orthogonalEdgeStyle;rounded=0;orthogonalLoop=1;jettySize=auto;html=1;exitX=0.5;exitY=1;exitDx=0;exitDy=0;" edge="1" parent="1" source="WczFpYkSfaAEdAV59eQe-28">
          <mxGeometry relative="1" as="geometry">
            <mxPoint x="140" y="720" as="targetPoint" />
            <mxPoint x="150" y="530" as="sourcePoint" />
          </mxGeometry>
        </mxCell>
        <mxCell id="WczFpYkSfaAEdAV59eQe-30" value="No" style="edgeLabel;html=1;align=center;verticalAlign=middle;resizable=0;points=[];" vertex="1" connectable="0" parent="WczFpYkSfaAEdAV59eQe-29">
          <mxGeometry x="-0.1406" y="-2" relative="1" as="geometry">
            <mxPoint as="offset" />
          </mxGeometry>
        </mxCell>
        <mxCell id="WczFpYkSfaAEdAV59eQe-31" style="edgeStyle=orthogonalEdgeStyle;rounded=0;orthogonalLoop=1;jettySize=auto;html=1;exitX=1;exitY=0.5;exitDx=0;exitDy=0;" edge="1" parent="1">
          <mxGeometry relative="1" as="geometry">
            <mxPoint x="240" y="620" as="targetPoint" />
            <mxPoint x="200" y="620" as="sourcePoint" />
            <Array as="points">
              <mxPoint x="240" y="620" />
              <mxPoint x="240" y="620" />
            </Array>
          </mxGeometry>
        </mxCell>
        <mxCell id="WczFpYkSfaAEdAV59eQe-32" value="No" style="edgeLabel;html=1;align=center;verticalAlign=middle;resizable=0;points=[];" vertex="1" connectable="0" parent="WczFpYkSfaAEdAV59eQe-31">
          <mxGeometry x="-0.9143" relative="1" as="geometry">
            <mxPoint x="8" as="offset" />
          </mxGeometry>
        </mxCell>
        <mxCell id="WczFpYkSfaAEdAV59eQe-33" value="Yes" style="edgeLabel;html=1;align=center;verticalAlign=middle;resizable=0;points=[];" vertex="1" connectable="0" parent="WczFpYkSfaAEdAV59eQe-31">
          <mxGeometry x="-0.4" y="-1" relative="1" as="geometry">
            <mxPoint as="offset" />
          </mxGeometry>
        </mxCell>
        <mxCell id="WczFpYkSfaAEdAV59eQe-34" value="Education Page" style="shape=process;whiteSpace=wrap;html=1;backgroundOutline=1;" vertex="1" parent="1">
          <mxGeometry x="240" y="600" width="100" height="40" as="geometry" />
        </mxCell>
        <mxCell id="WczFpYkSfaAEdAV59eQe-35" value="was element &quot;Options&quot;&lt;div&gt;button&lt;/div&gt;" style="rhombus;whiteSpace=wrap;html=1;" vertex="1" parent="1">
          <mxGeometry x="80" y="720" width="120" height="80" as="geometry" />
        </mxCell>
        <mxCell id="WczFpYkSfaAEdAV59eQe-36" style="edgeStyle=orthogonalEdgeStyle;rounded=0;orthogonalLoop=1;jettySize=auto;html=1;exitX=0.5;exitY=1;exitDx=0;exitDy=0;" edge="1" parent="1" source="WczFpYkSfaAEdAV59eQe-35">
          <mxGeometry relative="1" as="geometry">
            <mxPoint x="140" y="860" as="targetPoint" />
            <mxPoint x="150" y="670" as="sourcePoint" />
          </mxGeometry>
        </mxCell>
        <mxCell id="WczFpYkSfaAEdAV59eQe-37" value="No" style="edgeLabel;html=1;align=center;verticalAlign=middle;resizable=0;points=[];" vertex="1" connectable="0" parent="WczFpYkSfaAEdAV59eQe-36">
          <mxGeometry x="-0.1406" y="-2" relative="1" as="geometry">
            <mxPoint as="offset" />
          </mxGeometry>
        </mxCell>
        <mxCell id="WczFpYkSfaAEdAV59eQe-38" style="edgeStyle=orthogonalEdgeStyle;rounded=0;orthogonalLoop=1;jettySize=auto;html=1;exitX=1;exitY=0.5;exitDx=0;exitDy=0;" edge="1" parent="1">
          <mxGeometry relative="1" as="geometry">
            <mxPoint x="240" y="760" as="targetPoint" />
            <mxPoint x="200" y="760" as="sourcePoint" />
            <Array as="points">
              <mxPoint x="240" y="760" />
              <mxPoint x="240" y="760" />
            </Array>
          </mxGeometry>
        </mxCell>
        <mxCell id="WczFpYkSfaAEdAV59eQe-39" value="No" style="edgeLabel;html=1;align=center;verticalAlign=middle;resizable=0;points=[];" vertex="1" connectable="0" parent="WczFpYkSfaAEdAV59eQe-38">
          <mxGeometry x="-0.9143" relative="1" as="geometry">
            <mxPoint x="8" as="offset" />
          </mxGeometry>
        </mxCell>
        <mxCell id="WczFpYkSfaAEdAV59eQe-40" value="Yes" style="edgeLabel;html=1;align=center;verticalAlign=middle;resizable=0;points=[];" vertex="1" connectable="0" parent="WczFpYkSfaAEdAV59eQe-38">
          <mxGeometry x="-0.4" y="-1" relative="1" as="geometry">
            <mxPoint as="offset" />
          </mxGeometry>
        </mxCell>
        <mxCell id="WczFpYkSfaAEdAV59eQe-41" value="Option Page" style="shape=process;whiteSpace=wrap;html=1;backgroundOutline=1;" vertex="1" parent="1">
          <mxGeometry x="240" y="740" width="100" height="40" as="geometry" />
        </mxCell>
        <mxCell id="WczFpYkSfaAEdAV59eQe-42" value="was element &quot;Login&quot;&lt;div&gt;button&lt;/div&gt;" style="rhombus;whiteSpace=wrap;html=1;" vertex="1" parent="1">
          <mxGeometry x="80" y="860" width="120" height="80" as="geometry" />
        </mxCell>
        <mxCell id="WczFpYkSfaAEdAV59eQe-43" style="edgeStyle=orthogonalEdgeStyle;rounded=0;orthogonalLoop=1;jettySize=auto;html=1;exitX=0.5;exitY=1;exitDx=0;exitDy=0;" edge="1" parent="1" source="WczFpYkSfaAEdAV59eQe-42">
          <mxGeometry relative="1" as="geometry">
            <mxPoint x="140" y="1000" as="targetPoint" />
            <mxPoint x="150" y="810" as="sourcePoint" />
          </mxGeometry>
        </mxCell>
        <mxCell id="WczFpYkSfaAEdAV59eQe-44" value="No" style="edgeLabel;html=1;align=center;verticalAlign=middle;resizable=0;points=[];" vertex="1" connectable="0" parent="WczFpYkSfaAEdAV59eQe-43">
          <mxGeometry x="-0.1406" y="-2" relative="1" as="geometry">
            <mxPoint as="offset" />
          </mxGeometry>
        </mxCell>
        <mxCell id="WczFpYkSfaAEdAV59eQe-45" style="edgeStyle=orthogonalEdgeStyle;rounded=0;orthogonalLoop=1;jettySize=auto;html=1;exitX=1;exitY=0.5;exitDx=0;exitDy=0;" edge="1" parent="1">
          <mxGeometry relative="1" as="geometry">
            <mxPoint x="240" y="900" as="targetPoint" />
            <mxPoint x="200" y="900" as="sourcePoint" />
            <Array as="points">
              <mxPoint x="240" y="900" />
              <mxPoint x="240" y="900" />
            </Array>
          </mxGeometry>
        </mxCell>
        <mxCell id="WczFpYkSfaAEdAV59eQe-46" value="No" style="edgeLabel;html=1;align=center;verticalAlign=middle;resizable=0;points=[];" vertex="1" connectable="0" parent="WczFpYkSfaAEdAV59eQe-45">
          <mxGeometry x="-0.9143" relative="1" as="geometry">
            <mxPoint x="8" as="offset" />
          </mxGeometry>
        </mxCell>
        <mxCell id="WczFpYkSfaAEdAV59eQe-47" value="Yes" style="edgeLabel;html=1;align=center;verticalAlign=middle;resizable=0;points=[];" vertex="1" connectable="0" parent="WczFpYkSfaAEdAV59eQe-45">
          <mxGeometry x="-0.4" y="-1" relative="1" as="geometry">
            <mxPoint as="offset" />
          </mxGeometry>
        </mxCell>
        <mxCell id="WczFpYkSfaAEdAV59eQe-48" value="Login Page" style="shape=process;whiteSpace=wrap;html=1;backgroundOutline=1;" vertex="1" parent="1">
          <mxGeometry x="250" y="960" width="100" height="40" as="geometry" />
        </mxCell>
        <mxCell id="WczFpYkSfaAEdAV59eQe-50" value="is user logged in" style="rhombus;whiteSpace=wrap;html=1;" vertex="1" parent="1">
          <mxGeometry x="240" y="860" width="120" height="80" as="geometry" />
        </mxCell>
        <mxCell id="WczFpYkSfaAEdAV59eQe-51" style="edgeStyle=orthogonalEdgeStyle;rounded=0;orthogonalLoop=1;jettySize=auto;html=1;exitX=0.5;exitY=1;exitDx=0;exitDy=0;" edge="1" parent="1" source="WczFpYkSfaAEdAV59eQe-50">
          <mxGeometry relative="1" as="geometry">
            <mxPoint x="300" y="960" as="targetPoint" />
            <mxPoint x="310" y="810" as="sourcePoint" />
          </mxGeometry>
        </mxCell>
        <mxCell id="WczFpYkSfaAEdAV59eQe-52" value="No" style="edgeLabel;html=1;align=center;verticalAlign=middle;resizable=0;points=[];" vertex="1" connectable="0" parent="WczFpYkSfaAEdAV59eQe-51">
          <mxGeometry x="-0.1406" y="-2" relative="1" as="geometry">
            <mxPoint as="offset" />
          </mxGeometry>
        </mxCell>
        <mxCell id="WczFpYkSfaAEdAV59eQe-53" style="edgeStyle=orthogonalEdgeStyle;rounded=0;orthogonalLoop=1;jettySize=auto;html=1;exitX=1;exitY=0.5;exitDx=0;exitDy=0;entryX=0;entryY=0.5;entryDx=0;entryDy=0;" edge="1" parent="1" target="WczFpYkSfaAEdAV59eQe-56">
          <mxGeometry relative="1" as="geometry">
            <mxPoint x="380" y="900" as="targetPoint" />
            <mxPoint x="360" y="900" as="sourcePoint" />
            <Array as="points" />
          </mxGeometry>
        </mxCell>
        <mxCell id="WczFpYkSfaAEdAV59eQe-55" value="Yes" style="edgeLabel;html=1;align=center;verticalAlign=middle;resizable=0;points=[];" vertex="1" connectable="0" parent="WczFpYkSfaAEdAV59eQe-53">
          <mxGeometry x="-0.4" y="-1" relative="1" as="geometry">
            <mxPoint as="offset" />
          </mxGeometry>
        </mxCell>
        <mxCell id="WczFpYkSfaAEdAV59eQe-64" style="edgeStyle=orthogonalEdgeStyle;rounded=0;orthogonalLoop=1;jettySize=auto;html=1;exitX=0.5;exitY=0;exitDx=0;exitDy=0;entryX=1;entryY=0.5;entryDx=0;entryDy=0;" edge="1" parent="1" source="WczFpYkSfaAEdAV59eQe-56" target="WczFpYkSfaAEdAV59eQe-1">
          <mxGeometry relative="1" as="geometry" />
        </mxCell>
        <mxCell id="WczFpYkSfaAEdAV59eQe-56" value="Log user out&amp;nbsp;" style="rounded=0;whiteSpace=wrap;html=1;" vertex="1" parent="1">
          <mxGeometry x="400" y="870" width="100" height="60" as="geometry" />
        </mxCell>
        <mxCell id="WczFpYkSfaAEdAV59eQe-65" style="edgeStyle=orthogonalEdgeStyle;rounded=0;orthogonalLoop=1;jettySize=auto;html=1;exitX=1;exitY=0.5;exitDx=0;exitDy=0;" edge="1" parent="1" source="WczFpYkSfaAEdAV59eQe-58">
          <mxGeometry relative="1" as="geometry">
            <mxPoint x="450" y="800" as="targetPoint" />
            <Array as="points">
              <mxPoint x="560" y="1040" />
              <mxPoint x="560" y="800" />
            </Array>
          </mxGeometry>
        </mxCell>
        <mxCell id="WczFpYkSfaAEdAV59eQe-58" value="Use &quot;ZooInfo&quot; user cotrol to open the information sidebar" style="rounded=0;whiteSpace=wrap;html=1;" vertex="1" parent="1">
          <mxGeometry x="400" y="1010" width="120" height="60" as="geometry" />
        </mxCell>
        <mxCell id="WczFpYkSfaAEdAV59eQe-66" style="edgeStyle=orthogonalEdgeStyle;rounded=0;orthogonalLoop=1;jettySize=auto;html=1;exitX=1;exitY=0.5;exitDx=0;exitDy=0;" edge="1" parent="1" source="WczFpYkSfaAEdAV59eQe-59">
          <mxGeometry relative="1" as="geometry">
            <mxPoint x="560" y="1040" as="targetPoint" />
          </mxGeometry>
        </mxCell>
        <mxCell id="WczFpYkSfaAEdAV59eQe-59" value="delete &quot;ZooInfo&quot; child from window" style="rounded=0;whiteSpace=wrap;html=1;" vertex="1" parent="1">
          <mxGeometry x="400" y="1100" width="120" height="60" as="geometry" />
        </mxCell>
        <mxCell id="WczFpYkSfaAEdAV59eQe-63" style="edgeStyle=orthogonalEdgeStyle;rounded=0;orthogonalLoop=1;jettySize=auto;html=1;exitX=0.5;exitY=1;exitDx=0;exitDy=0;entryX=0;entryY=0.5;entryDx=0;entryDy=0;" edge="1" parent="1" source="WczFpYkSfaAEdAV59eQe-60" target="WczFpYkSfaAEdAV59eQe-59">
          <mxGeometry relative="1" as="geometry" />
        </mxCell>
        <mxCell id="WczFpYkSfaAEdAV59eQe-60" value="is &quot;ZooInfo&quot; user control already active" style="rhombus;whiteSpace=wrap;html=1;" vertex="1" parent="1">
          <mxGeometry x="80" y="1000" width="120" height="80" as="geometry" />
        </mxCell>
        <mxCell id="WczFpYkSfaAEdAV59eQe-62" style="edgeStyle=orthogonalEdgeStyle;rounded=0;orthogonalLoop=1;jettySize=auto;html=1;exitX=1;exitY=0.5;exitDx=0;exitDy=0;entryX=0;entryY=0.5;entryDx=0;entryDy=0;" edge="1" parent="1" source="WczFpYkSfaAEdAV59eQe-60" target="WczFpYkSfaAEdAV59eQe-58">
          <mxGeometry relative="1" as="geometry" />
        </mxCell>
      </root>
    </mxGraphModel>
  </diagram>
</mxfile>
